<?xml version="1.0" encoding="UTF-8"?>
<svg xmlns="http://www.w3.org/2000/svg" width="1800" height="1125" viewBox="0 0 1800 1125" role="img" aria-labelledby="title desc">
  <title id="title">SAME BRAIN / DIFFERENT GAME</title>
  <desc id="desc">The interface changes. The pattern-seeking machinery keeps playing.</desc>
  <defs>
    <filter id="paper-noise" x="-10%" y="-10%" width="120%" height="120%">
      <feTurbulence type="fractalNoise" baseFrequency="0.7" numOctaves="2" seed="14" result="noise"/>
      <feColorMatrix in="noise" type="saturate" values="0"/>
      <feComponentTransfer>
        <feFuncA type="table" tableValues="0 0.07"/>
      </feComponentTransfer>
    </filter>
    <marker id="arrow" markerWidth="12" markerHeight="12" refX="10" refY="6" orient="auto">
      <path d="M0,0 L12,6 L0,12 z" fill="#a95a3f"/>
    </marker>
    <marker id="arrow-faded" markerWidth="12" markerHeight="12" refX="10" refY="6" orient="auto">
      <path d="M0,0 L12,6 L0,12 z" fill="#81786a"/>
    </marker>
  </defs>
  <rect width="1800" height="1125" fill="#171b21"/>
  <rect x="28" y="28" width="1744" height="1069" rx="24" fill="none" stroke="#c7b58e" stroke-width="3"/>
  <rect width="1800" height="1125" filter="url(#paper-noise)" opacity="0.55"/>
  <text x="90" y="102" fill="#e6d7b7" font-family="Georgia, serif" font-size="56" font-weight="700" letter-spacing="2">SAME BRAIN / DIFFERENT GAME</text>
  <text x="92" y="146" fill="#c7b58e" font-family="Arial, sans-serif" font-size="25">The interface changes. The pattern-seeking machinery keeps playing.</text>

  <rect x="84" y="174" width="610" height="54" rx="6" fill="#a95a3f"/>
  <rect x="792" y="174" width="924" height="54" rx="6" fill="#457d79"/>
  <text x="112" y="211" fill="#f3ead6" font-family="Arial, sans-serif" font-size="25" font-weight="700" letter-spacing="2">COMPUTER GAME</text>
  <text x="824" y="211" fill="#f3ead6" font-family="Arial, sans-serif" font-size="25" font-weight="700" letter-spacing="2">AI-ASSISTED HOBFARM WORK</text>

      <rect x="84" y="244" width="1632" height="78" rx="8" fill="#25272a" stroke="#504b41" stroke-width="1"/>
      <rect x="84" y="244" width="12" height="78" rx="4" fill="#457d79"/>
      <text x="126" y="293" fill="#f3ead6" font-family="Arial, sans-serif" font-size="29" font-weight="700">Rules and mechanics</text>
      <path d="M690 283 H790" stroke="#457d79" stroke-width="4" marker-end="url(#arrow)"/>
      <text x="835" y="293" fill="#e6d7b7" font-family="Arial, sans-serif" font-size="28">Model behavior and instructions</text>
      <rect x="84" y="338" width="1632" height="78" rx="8" fill="#202226" stroke="#504b41" stroke-width="1"/>
      <rect x="84" y="338" width="12" height="78" rx="4" fill="#a95a3f"/>
      <text x="126" y="387" fill="#f3ead6" font-family="Arial, sans-serif" font-size="29" font-weight="700">Patches and sequels</text>
      <path d="M690 377 H790" stroke="#a95a3f" stroke-width="4" marker-end="url(#arrow)"/>
      <text x="835" y="387" fill="#e6d7b7" font-family="Arial, sans-serif" font-size="28">Model updates and provider changes</text>
      <rect x="84" y="432" width="1632" height="78" rx="8" fill="#25272a" stroke="#504b41" stroke-width="1"/>
      <rect x="84" y="432" width="12" height="78" rx="4" fill="#457d79"/>
      <text x="126" y="481" fill="#f3ead6" font-family="Arial, sans-serif" font-size="29" font-weight="700">Save files</text>
      <path d="M690 471 H790" stroke="#457d79" stroke-width="4" marker-end="url(#arrow)"/>
      <text x="835" y="481" fill="#e6d7b7" font-family="Arial, sans-serif" font-size="28">Source files, articles, repositories, assets</text>
      <rect x="84" y="526" width="1632" height="78" rx="8" fill="#202226" stroke="#504b41" stroke-width="1"/>
      <rect x="84" y="526" width="12" height="78" rx="4" fill="#a95a3f"/>
      <text x="126" y="575" fill="#f3ead6" font-family="Arial, sans-serif" font-size="29" font-weight="700">Mods</text>
      <path d="M690 565 H790" stroke="#a95a3f" stroke-width="4" marker-end="url(#arrow)"/>
      <text x="835" y="575" fill="#e6d7b7" font-family="Arial, sans-serif" font-size="28">Skills, plugins, adapters, scripts</text>
      <rect x="84" y="620" width="1632" height="78" rx="8" fill="#25272a" stroke="#504b41" stroke-width="1"/>
      <rect x="84" y="620" width="12" height="78" rx="4" fill="#457d79"/>
      <text x="126" y="669" fill="#f3ead6" font-family="Arial, sans-serif" font-size="29" font-weight="700">Strategy guides</text>
      <path d="M690 659 H790" stroke="#457d79" stroke-width="4" marker-end="url(#arrow)"/>
      <text x="835" y="669" fill="#e6d7b7" font-family="Arial, sans-serif" font-size="28">AGENTS.md, project maps, workflow docs</text>
      <rect x="84" y="714" width="1632" height="78" rx="8" fill="#202226" stroke="#504b41" stroke-width="1"/>
      <rect x="84" y="714" width="12" height="78" rx="4" fill="#a95a3f"/>
      <text x="126" y="763" fill="#f3ead6" font-family="Arial, sans-serif" font-size="29" font-weight="700">Bugs and exploits</text>
      <path d="M690 753 H790" stroke="#a95a3f" stroke-width="4" marker-end="url(#arrow)"/>
      <text x="835" y="763" fill="#e6d7b7" font-family="Arial, sans-serif" font-size="28">Failure modes and workarounds</text>
      <rect x="84" y="808" width="1632" height="78" rx="8" fill="#25272a" stroke="#504b41" stroke-width="1"/>
      <rect x="84" y="808" width="12" height="78" rx="4" fill="#765477"/>
      <text x="126" y="857" fill="#f3ead6" font-family="Arial, sans-serif" font-size="29" font-weight="700">Side quests</text>
      <path d="M690 847 H790" stroke="#765477" stroke-width="4" marker-end="url(#arrow)"/>
      <text x="835" y="857" fill="#e6d7b7" font-family="Arial, sans-serif" font-size="28">Other Alice, avatars, tools, experiments</text>
      <rect x="84" y="902" width="1632" height="78" rx="8" fill="#202226" stroke="#504b41" stroke-width="1"/>
      <rect x="84" y="902" width="12" height="78" rx="4" fill="#a95a3f"/>
      <text x="126" y="951" fill="#f3ead6" font-family="Arial, sans-serif" font-size="29" font-weight="700">Final score</text>
      <path d="M690 941 H790" stroke="#a95a3f" stroke-width="4" marker-end="url(#arrow)"/>
      <text x="835" y="951" fill="#e6d7b7" font-family="Arial, sans-serif" font-size="28">No stable score: output and satisfaction</text>
  <text x="90" y="1056" fill="#c7b58e" font-family="Georgia, serif" font-size="27" font-style="italic">Experience transfers. Mastery does not.</text>
  </svg>
